<svg xmlns="http://www.w3.org/2000/svg" xmlns:xlink="http://www.w3.org/1999/xlink" width="250" zoomAndPan="magnify" viewBox="0 0 187.5 74.999997" height="100" preserveAspectRatio="xMidYMid meet" version="1.0"><defs><g/><clipPath id="87f5b2a88c"><path d="M 4.132812 13.003906 L 45.382812 13.003906 L 45.382812 56.503906 L 4.132812 56.503906 Z M 4.132812 13.003906 " clip-rule="nonzero"/></clipPath></defs><g clip-path="url(#87f5b2a88c)"><path fill="#ffffff" d="M 30.3125 42.714844 C 30.210938 41.914062 30.882812 41.238281 31.675781 41.339844 C 32.21875 41.410156 32.65625 41.851562 32.726562 42.394531 C 32.828125 43.195312 32.15625 43.871094 31.359375 43.769531 C 30.816406 43.699219 30.378906 43.257812 30.3125 42.714844 Z M 17.550781 14.574219 C 18.34375 14.472656 19.015625 15.148438 18.914062 15.945312 C 18.84375 16.492188 18.40625 16.933594 17.867188 17 C 17.070312 17.101562 16.398438 16.425781 16.5 15.628906 C 16.570312 15.082031 17.007812 14.640625 17.550781 14.574219 Z M 44.992188 15.007812 L 31.816406 15.007812 C 31.621094 15.007812 31.433594 15.082031 31.289062 15.214844 L 17.035156 28.507812 C 16.964844 28.574219 16.871094 28.613281 16.773438 28.613281 L 6.066406 28.613281 C 5.851562 28.613281 5.679688 28.4375 5.679688 28.222656 L 5.679688 16.953125 C 5.679688 16.738281 5.851562 16.566406 6.066406 16.566406 L 14.777344 16.566406 C 14.9375 16.566406 15.078125 16.660156 15.136719 16.808594 C 15.558594 17.882812 16.632812 18.632812 17.867188 18.5625 C 19.242188 18.484375 20.367188 17.371094 20.464844 15.988281 C 20.578125 14.363281 19.296875 13.007812 17.707031 13.007812 C 16.542969 13.007812 15.542969 13.738281 15.136719 14.765625 C 15.078125 14.914062 14.9375 15.007812 14.777344 15.007812 L 4.519531 15.007812 C 4.304688 15.007812 4.132812 15.183594 4.132812 15.398438 L 4.132812 29.777344 C 4.132812 29.992188 4.304688 30.167969 4.519531 30.167969 L 17.226562 30.167969 C 17.421875 30.167969 17.609375 30.09375 17.753906 29.960938 L 32.007812 16.667969 C 32.078125 16.601562 32.171875 16.566406 32.269531 16.566406 L 43.445312 16.566406 C 43.660156 16.566406 43.832031 16.738281 43.832031 16.953125 L 43.832031 28.222656 C 43.832031 28.4375 43.660156 28.613281 43.445312 28.613281 L 31.363281 28.613281 C 31.261719 28.613281 31.164062 28.652344 31.09375 28.722656 L 17.457031 41.996094 C 17.304688 42.140625 17.222656 42.34375 17.222656 42.554688 L 17.222656 56.109375 C 17.222656 56.324219 17.394531 56.496094 17.609375 56.496094 L 31.90625 56.496094 C 32.117188 56.496094 32.292969 56.324219 32.292969 56.109375 L 32.292969 45.5 C 32.292969 45.34375 32.386719 45.199219 32.53125 45.140625 C 33.601562 44.714844 34.347656 43.636719 34.277344 42.394531 C 34.199219 41.007812 33.09375 39.878906 31.714844 39.78125 C 30.101562 39.667969 28.753906 40.957031 28.753906 42.554688 C 28.753906 43.726562 29.480469 44.734375 30.503906 45.140625 C 30.648438 45.199219 30.746094 45.34375 30.746094 45.5 L 30.746094 54.550781 C 30.746094 54.765625 30.570312 54.941406 30.359375 54.941406 L 19.15625 54.941406 C 18.941406 54.941406 18.769531 54.765625 18.769531 54.550781 L 18.769531 43.050781 C 18.769531 42.945312 18.808594 42.84375 18.886719 42.769531 L 31.71875 30.277344 C 31.789062 30.207031 31.886719 30.167969 31.988281 30.167969 L 44.992188 30.167969 C 45.207031 30.167969 45.378906 29.992188 45.378906 29.777344 L 45.378906 15.398438 C 45.378906 15.183594 45.207031 15.007812 44.992188 15.007812 " fill-opacity="1" fill-rule="nonzero"/></g><g fill="#ffffff" fill-opacity="1"><g transform="translate(35.748203, 52.721001)"><g><path d="M 10.042969 0.410156 C 13.742188 0.410156 16.773438 -1.578125 18.097656 -4.769531 L 15.097656 -4.769531 C 14.085938 -3.03125 12.222656 -2.085938 10.078125 -2.085938 C 6.949219 -2.085938 4.738281 -4.042969 4.328125 -7.140625 L 18.511719 -7.140625 C 18.699219 -12.855469 15.320312 -16.804688 10.078125 -16.804688 C 5.117188 -16.804688 1.640625 -13.265625 1.640625 -8.210938 C 1.640625 -3.128906 5.085938 0.410156 10.042969 0.410156 Z M 4.359375 -9.476562 C 4.832031 -12.382812 7.042969 -14.308594 10.078125 -14.308594 C 13.078125 -14.308594 15.289062 -12.476562 15.855469 -9.476562 Z M 4.359375 -9.476562 "/></g></g></g><g fill="#ffffff" fill-opacity="1"><g transform="translate(55.837585, 52.721001)"><g><path d="M 8.308594 0.253906 C 10.960938 0.253906 13.046875 -0.601562 14.53125 -2.273438 L 14.8125 0 L 16.992188 0 L 16.992188 -10.421875 C 16.992188 -14.214844 14.121094 -16.804688 9.824219 -16.804688 C 6.253906 -16.804688 3.570312 -14.878906 2.84375 -11.71875 L 5.527344 -11.71875 C 6.066406 -13.328125 7.738281 -14.339844 9.855469 -14.339844 C 12.636719 -14.339844 14.339844 -12.792969 14.339844 -10.234375 L 14.339844 -9.632812 L 7.644531 -9.632812 C 4.234375 -9.632812 1.988281 -7.707031 1.988281 -4.738281 C 1.988281 -1.640625 4.359375 0.253906 8.308594 0.253906 Z M 4.644531 -4.769531 C 4.644531 -6.316406 5.90625 -7.296875 7.738281 -7.296875 L 14.371094 -7.296875 C 14.277344 -4.265625 11.8125 -2.117188 8.402344 -2.117188 C 6.097656 -2.117188 4.644531 -3.160156 4.644531 -4.769531 Z M 4.644531 -4.769531 "/></g></g></g><g fill="#ffffff" fill-opacity="1"><g transform="translate(75.421587, 52.721001)"><g><path d="M 2.9375 0 L 5.589844 0 L 5.589844 -8.71875 C 5.589844 -12.097656 7.484375 -14.277344 10.328125 -14.277344 C 13.078125 -14.277344 14.8125 -12.191406 14.8125 -8.9375 L 14.8125 0 L 17.46875 0 L 17.46875 -8.71875 C 17.46875 -12.097656 19.363281 -14.277344 22.207031 -14.277344 C 24.953125 -14.277344 26.691406 -12.191406 26.691406 -8.9375 L 26.691406 0 L 29.34375 0 L 29.34375 -9.382812 C 29.34375 -13.960938 26.691406 -16.804688 22.554688 -16.804688 C 19.898438 -16.804688 17.753906 -15.667969 16.457031 -13.582031 C 15.351562 -15.699219 13.328125 -16.804688 10.707031 -16.804688 C 8.433594 -16.804688 6.601562 -15.953125 5.371094 -14.339844 L 5.117188 -16.394531 L 2.9375 -16.394531 Z M 2.9375 0 "/></g></g></g><g fill="#ffffff" fill-opacity="1"><g transform="translate(107.387707, 52.721001)"><g><path d="M 8.875 0.410156 C 12.917969 0.410156 15.539062 -1.453125 15.539062 -4.296875 C 15.539062 -6.855469 13.394531 -8.589844 9.253906 -9.414062 C 5.84375 -10.078125 4.675781 -10.738281 4.675781 -12.128906 C 4.675781 -13.582031 6.066406 -14.46875 8.433594 -14.46875 C 10.929688 -14.46875 12.414062 -13.488281 12.601562 -11.6875 L 15.226562 -11.6875 C 15.003906 -14.910156 12.445312 -16.804688 8.402344 -16.804688 C 4.453125 -16.804688 2.054688 -15.066406 2.054688 -12.128906 C 2.054688 -9.539062 4.042969 -7.960938 8.277344 -7.265625 C 11.464844 -6.726562 12.917969 -5.84375 12.917969 -4.359375 C 12.917969 -2.875 11.402344 -1.957031 8.90625 -1.957031 C 6.097656 -1.957031 4.421875 -3.160156 4.328125 -5.148438 L 1.707031 -5.148438 C 1.769531 -1.800781 4.582031 0.410156 8.875 0.410156 Z M 8.875 0.410156 "/></g></g></g><g fill="#ffffff" fill-opacity="1"><g transform="translate(124.634244, 52.721001)"><g><path d="M 2.367188 6.316406 L 4.234375 6.316406 C 7.296875 6.316406 8.78125 5.558594 9.917969 2.558594 L 17.4375 -16.394531 L 14.625 -16.394531 L 11.5625 -8.65625 L 9.570312 -3.570312 L 7.171875 -8.65625 L 3.472656 -16.394531 L 0.503906 -16.394531 L 8.277344 -0.378906 L 7.519531 1.546875 C 6.824219 3.378906 6.097656 3.820312 3.980469 3.820312 L 2.367188 3.820312 Z M 2.367188 6.316406 "/></g></g></g><g fill="#ffffff" fill-opacity="1"><g transform="translate(142.575702, 52.721001)"><g><path d="M 2.9375 0 L 5.589844 0 L 5.589844 -8.277344 C 5.589844 -11.875 7.769531 -14.277344 10.835938 -14.277344 C 13.707031 -14.277344 15.476562 -12.191406 15.476562 -8.875 L 15.476562 0 L 18.132812 0 L 18.132812 -9.128906 C 18.132812 -13.804688 15.539062 -16.804688 11.183594 -16.804688 C 8.972656 -16.804688 6.824219 -15.953125 5.402344 -13.992188 L 5.117188 -16.394531 L 2.9375 -16.394531 Z M 2.9375 0 "/></g></g></g><g fill="#ffffff" fill-opacity="1"><g transform="translate(163.328411, 52.721001)"><g><path d="M 10.078125 0.410156 C 14.183594 0.410156 17.371094 -2.054688 18.476562 -6.03125 L 15.667969 -6.03125 C 14.847656 -3.664062 12.730469 -2.148438 10.078125 -2.148438 C 6.695312 -2.148438 4.296875 -4.644531 4.296875 -8.210938 C 4.296875 -11.75 6.695312 -14.277344 10.078125 -14.277344 C 12.570312 -14.277344 14.625 -12.917969 15.605469 -10.644531 L 18.289062 -10.644531 C 17.46875 -14.339844 14.152344 -16.804688 10.078125 -16.804688 C 5.148438 -16.804688 1.640625 -13.203125 1.640625 -8.210938 C 1.640625 -3.191406 5.148438 0.410156 10.078125 0.410156 Z M 10.078125 0.410156 "/></g></g></g></svg>