<svg xmlns="http://www.w3.org/2000/svg" xmlns:xlink="http://www.w3.org/1999/xlink" width="500" zoomAndPan="magnify" viewBox="0 0 375 374.999991" height="500" preserveAspectRatio="xMidYMid meet" version="1.0"><defs><clipPath id="eefb82a03b"><path d="M 20.816406 12.734375 L 353.816406 12.734375 L 353.816406 362.234375 L 20.816406 362.234375 Z M 20.816406 12.734375 " clip-rule="nonzero"/></clipPath></defs><g clip-path="url(#eefb82a03b)"><path fill="#ffffff" d="M 232.160156 251.453125 C 231.34375 245.027344 236.765625 239.597656 243.183594 240.414062 C 247.558594 240.96875 251.09375 244.507812 251.648438 248.886719 C 252.464844 255.3125 247.042969 260.746094 240.625 259.925781 C 236.246094 259.367188 232.714844 255.832031 232.160156 251.453125 Z M 129.132812 25.359375 C 135.550781 24.542969 140.972656 29.972656 140.15625 36.398438 C 139.601562 40.777344 136.066406 44.3125 131.691406 44.871094 C 125.273438 45.6875 119.851562 40.257812 120.667969 33.832031 C 121.222656 29.453125 124.753906 25.917969 129.132812 25.359375 Z M 350.683594 28.863281 L 244.300781 28.863281 C 242.722656 28.863281 241.210938 29.460938 240.054688 30.527344 L 124.988281 137.316406 C 124.410156 137.855469 123.652344 138.152344 122.863281 138.152344 L 36.433594 138.152344 C 34.710938 138.152344 33.3125 136.75 33.3125 135.027344 L 33.3125 44.492188 C 33.3125 42.765625 34.710938 41.363281 36.433594 41.363281 L 106.769531 41.363281 C 108.039062 41.363281 109.191406 42.132812 109.660156 43.3125 C 113.078125 51.960938 121.738281 57.984375 131.699219 57.417969 C 142.816406 56.789062 151.894531 47.832031 152.671875 36.714844 C 153.585938 23.675781 143.246094 12.777344 130.410156 12.777344 C 121 12.777344 112.933594 18.640625 109.660156 26.914062 C 109.191406 28.09375 108.042969 28.863281 106.769531 28.863281 L 23.945312 28.863281 C 22.222656 28.863281 20.824219 30.265625 20.824219 31.988281 L 20.824219 147.527344 C 20.824219 149.253906 22.222656 150.65625 23.945312 150.65625 L 126.539062 150.65625 C 128.113281 150.65625 129.628906 150.058594 130.785156 148.988281 L 245.851562 42.199219 C 246.429688 41.664062 247.1875 41.363281 247.976562 41.363281 L 338.195312 41.363281 C 339.921875 41.363281 341.320312 42.765625 341.320312 44.492188 L 341.320312 135.027344 C 341.320312 136.75 339.921875 138.152344 338.195312 138.152344 L 240.640625 138.152344 C 239.832031 138.152344 239.050781 138.464844 238.46875 139.03125 L 128.386719 245.679688 C 127.167969 246.855469 126.484375 248.476562 126.484375 250.171875 L 126.484375 359.0625 C 126.484375 360.792969 127.878906 362.191406 129.605469 362.191406 L 245.023438 362.191406 C 246.75 362.191406 248.148438 360.792969 248.148438 359.0625 L 248.148438 273.835938 C 248.148438 272.566406 248.914062 271.410156 250.09375 270.945312 C 258.734375 267.519531 264.746094 258.851562 264.183594 248.878906 C 263.558594 237.753906 254.605469 228.667969 243.503906 227.890625 C 230.476562 226.972656 219.585938 237.324219 219.585938 250.171875 C 219.585938 259.59375 225.445312 267.667969 233.707031 270.945312 C 234.890625 271.410156 235.660156 272.566406 235.660156 273.835938 L 235.660156 346.558594 C 235.660156 348.285156 234.257812 349.6875 232.535156 349.6875 L 142.09375 349.6875 C 140.371094 349.6875 138.972656 348.285156 138.972656 346.558594 L 138.972656 254.144531 C 138.972656 253.296875 139.316406 252.488281 139.925781 251.898438 L 243.523438 151.535156 C 244.105469 150.96875 244.882812 150.65625 245.695312 150.65625 L 350.683594 150.65625 C 352.410156 150.65625 353.808594 149.253906 353.808594 147.527344 L 353.808594 31.988281 C 353.808594 30.265625 352.410156 28.863281 350.683594 28.863281 " fill-opacity="1" fill-rule="nonzero"/></g></svg>