<svg xmlns="http://www.w3.org/2000/svg" xmlns:xlink="http://www.w3.org/1999/xlink" width="250" zoomAndPan="magnify" viewBox="0 0 187.5 74.999997" height="100" preserveAspectRatio="xMidYMid meet" version="1.0"><defs><g/><clipPath id="13be2dcb0c"><path d="M 4.132812 12.253906 L 45.382812 12.253906 L 45.382812 55.753906 L 4.132812 55.753906 Z M 4.132812 12.253906 " clip-rule="nonzero"/></clipPath></defs><g clip-path="url(#13be2dcb0c)"><path fill="#ffffff" d="M 30.3125 41.964844 C 30.210938 41.164062 30.882812 40.488281 31.675781 40.589844 C 32.21875 40.660156 32.65625 41.101562 32.726562 41.644531 C 32.828125 42.445312 32.15625 43.121094 31.359375 43.019531 C 30.816406 42.949219 30.378906 42.507812 30.3125 41.964844 Z M 17.550781 13.824219 C 18.34375 13.722656 19.015625 14.398438 18.914062 15.195312 C 18.84375 15.742188 18.40625 16.183594 17.867188 16.25 C 17.070312 16.351562 16.398438 15.675781 16.5 14.878906 C 16.570312 14.332031 17.007812 13.890625 17.550781 13.824219 Z M 44.992188 14.257812 L 31.816406 14.257812 C 31.621094 14.257812 31.433594 14.332031 31.289062 14.464844 L 17.035156 27.757812 C 16.964844 27.824219 16.871094 27.863281 16.773438 27.863281 L 6.066406 27.863281 C 5.851562 27.863281 5.679688 27.6875 5.679688 27.472656 L 5.679688 16.203125 C 5.679688 15.988281 5.851562 15.816406 6.066406 15.816406 L 14.777344 15.816406 C 14.9375 15.816406 15.078125 15.910156 15.136719 16.058594 C 15.558594 17.132812 16.632812 17.882812 17.867188 17.8125 C 19.242188 17.734375 20.367188 16.621094 20.464844 15.238281 C 20.578125 13.613281 19.296875 12.257812 17.707031 12.257812 C 16.542969 12.257812 15.542969 12.988281 15.136719 14.015625 C 15.078125 14.164062 14.9375 14.257812 14.777344 14.257812 L 4.519531 14.257812 C 4.304688 14.257812 4.132812 14.433594 4.132812 14.648438 L 4.132812 29.027344 C 4.132812 29.242188 4.304688 29.417969 4.519531 29.417969 L 17.226562 29.417969 C 17.421875 29.417969 17.609375 29.34375 17.753906 29.210938 L 32.007812 15.917969 C 32.078125 15.851562 32.171875 15.816406 32.269531 15.816406 L 43.445312 15.816406 C 43.660156 15.816406 43.832031 15.988281 43.832031 16.203125 L 43.832031 27.472656 C 43.832031 27.6875 43.660156 27.863281 43.445312 27.863281 L 31.363281 27.863281 C 31.261719 27.863281 31.164062 27.902344 31.09375 27.972656 L 17.457031 41.246094 C 17.304688 41.390625 17.222656 41.59375 17.222656 41.804688 L 17.222656 55.359375 C 17.222656 55.574219 17.394531 55.746094 17.609375 55.746094 L 31.90625 55.746094 C 32.117188 55.746094 32.292969 55.574219 32.292969 55.359375 L 32.292969 44.75 C 32.292969 44.59375 32.386719 44.449219 32.53125 44.390625 C 33.601562 43.964844 34.347656 42.886719 34.277344 41.644531 C 34.199219 40.257812 33.09375 39.128906 31.714844 39.03125 C 30.101562 38.917969 28.753906 40.207031 28.753906 41.804688 C 28.753906 42.976562 29.480469 43.984375 30.503906 44.390625 C 30.648438 44.449219 30.746094 44.59375 30.746094 44.75 L 30.746094 53.800781 C 30.746094 54.015625 30.570312 54.191406 30.359375 54.191406 L 19.15625 54.191406 C 18.941406 54.191406 18.769531 54.015625 18.769531 53.800781 L 18.769531 42.300781 C 18.769531 42.195312 18.808594 42.09375 18.886719 42.019531 L 31.71875 29.527344 C 31.789062 29.457031 31.886719 29.417969 31.988281 29.417969 L 44.992188 29.417969 C 45.207031 29.417969 45.378906 29.242188 45.378906 29.027344 L 45.378906 14.648438 C 45.378906 14.433594 45.207031 14.257812 44.992188 14.257812 " fill-opacity="1" fill-rule="nonzero"/></g><g fill="#ffffff" fill-opacity="1"><g transform="translate(36.498202, 53.471002)"><g><path d="M 10.042969 0.410156 C 13.742188 0.410156 16.773438 -1.578125 18.097656 -4.769531 L 15.097656 -4.769531 C 14.085938 -3.03125 12.222656 -2.085938 10.078125 -2.085938 C 6.949219 -2.085938 4.738281 -4.042969 4.328125 -7.140625 L 18.511719 -7.140625 C 18.699219 -12.855469 15.320312 -16.804688 10.078125 -16.804688 C 5.117188 -16.804688 1.640625 -13.265625 1.640625 -8.210938 C 1.640625 -3.128906 5.085938 0.410156 10.042969 0.410156 Z M 4.359375 -9.476562 C 4.832031 -12.382812 7.042969 -14.308594 10.078125 -14.308594 C 13.078125 -14.308594 15.289062 -12.476562 15.855469 -9.476562 Z M 4.359375 -9.476562 "/></g></g></g><g fill="#ffffff" fill-opacity="1"><g transform="translate(56.587585, 53.471002)"><g><path d="M 8.308594 0.253906 C 10.960938 0.253906 13.046875 -0.601562 14.53125 -2.273438 L 14.8125 0 L 16.992188 0 L 16.992188 -10.421875 C 16.992188 -14.214844 14.121094 -16.804688 9.824219 -16.804688 C 6.253906 -16.804688 3.570312 -14.878906 2.84375 -11.71875 L 5.527344 -11.71875 C 6.066406 -13.328125 7.738281 -14.339844 9.855469 -14.339844 C 12.636719 -14.339844 14.339844 -12.792969 14.339844 -10.234375 L 14.339844 -9.632812 L 7.644531 -9.632812 C 4.234375 -9.632812 1.988281 -7.707031 1.988281 -4.738281 C 1.988281 -1.640625 4.359375 0.253906 8.308594 0.253906 Z M 4.644531 -4.769531 C 4.644531 -6.316406 5.90625 -7.296875 7.738281 -7.296875 L 14.371094 -7.296875 C 14.277344 -4.265625 11.8125 -2.117188 8.402344 -2.117188 C 6.097656 -2.117188 4.644531 -3.160156 4.644531 -4.769531 Z M 4.644531 -4.769531 "/></g></g></g><g fill="#ffffff" fill-opacity="1"><g transform="translate(76.171586, 53.471002)"><g><path d="M 2.9375 0 L 5.589844 0 L 5.589844 -8.71875 C 5.589844 -12.097656 7.484375 -14.277344 10.328125 -14.277344 C 13.078125 -14.277344 14.8125 -12.191406 14.8125 -8.9375 L 14.8125 0 L 17.46875 0 L 17.46875 -8.71875 C 17.46875 -12.097656 19.363281 -14.277344 22.207031 -14.277344 C 24.953125 -14.277344 26.691406 -12.191406 26.691406 -8.9375 L 26.691406 0 L 29.34375 0 L 29.34375 -9.382812 C 29.34375 -13.960938 26.691406 -16.804688 22.554688 -16.804688 C 19.898438 -16.804688 17.753906 -15.667969 16.457031 -13.582031 C 15.351562 -15.699219 13.328125 -16.804688 10.707031 -16.804688 C 8.433594 -16.804688 6.601562 -15.953125 5.371094 -14.339844 L 5.117188 -16.394531 L 2.9375 -16.394531 Z M 2.9375 0 "/></g></g></g><g fill="#ffffff" fill-opacity="1"><g transform="translate(108.137706, 53.471002)"><g><path d="M 8.875 0.410156 C 12.917969 0.410156 15.539062 -1.453125 15.539062 -4.296875 C 15.539062 -6.855469 13.394531 -8.589844 9.253906 -9.414062 C 5.84375 -10.078125 4.675781 -10.738281 4.675781 -12.128906 C 4.675781 -13.582031 6.066406 -14.46875 8.433594 -14.46875 C 10.929688 -14.46875 12.414062 -13.488281 12.601562 -11.6875 L 15.226562 -11.6875 C 15.003906 -14.910156 12.445312 -16.804688 8.402344 -16.804688 C 4.453125 -16.804688 2.054688 -15.066406 2.054688 -12.128906 C 2.054688 -9.539062 4.042969 -7.960938 8.277344 -7.265625 C 11.464844 -6.726562 12.917969 -5.84375 12.917969 -4.359375 C 12.917969 -2.875 11.402344 -1.957031 8.90625 -1.957031 C 6.097656 -1.957031 4.421875 -3.160156 4.328125 -5.148438 L 1.707031 -5.148438 C 1.769531 -1.800781 4.582031 0.410156 8.875 0.410156 Z M 8.875 0.410156 "/></g></g></g><g fill="#ffffff" fill-opacity="1"><g transform="translate(125.384244, 53.471002)"><g><path d="M 2.367188 6.316406 L 4.234375 6.316406 C 7.296875 6.316406 8.78125 5.558594 9.917969 2.558594 L 17.4375 -16.394531 L 14.625 -16.394531 L 11.5625 -8.65625 L 9.570312 -3.570312 L 7.171875 -8.65625 L 3.472656 -16.394531 L 0.503906 -16.394531 L 8.277344 -0.378906 L 7.519531 1.546875 C 6.824219 3.378906 6.097656 3.820312 3.980469 3.820312 L 2.367188 3.820312 Z M 2.367188 6.316406 "/></g></g></g><g fill="#ffffff" fill-opacity="1"><g transform="translate(143.325702, 53.471002)"><g><path d="M 2.9375 0 L 5.589844 0 L 5.589844 -8.277344 C 5.589844 -11.875 7.769531 -14.277344 10.835938 -14.277344 C 13.707031 -14.277344 15.476562 -12.191406 15.476562 -8.875 L 15.476562 0 L 18.132812 0 L 18.132812 -9.128906 C 18.132812 -13.804688 15.539062 -16.804688 11.183594 -16.804688 C 8.972656 -16.804688 6.824219 -15.953125 5.402344 -13.992188 L 5.117188 -16.394531 L 2.9375 -16.394531 Z M 2.9375 0 "/></g></g></g><g fill="#ffffff" fill-opacity="1"><g transform="translate(164.078411, 53.471002)"><g><path d="M 10.078125 0.410156 C 14.183594 0.410156 17.371094 -2.054688 18.476562 -6.03125 L 15.667969 -6.03125 C 14.847656 -3.664062 12.730469 -2.148438 10.078125 -2.148438 C 6.695312 -2.148438 4.296875 -4.644531 4.296875 -8.210938 C 4.296875 -11.75 6.695312 -14.277344 10.078125 -14.277344 C 12.570312 -14.277344 14.625 -12.917969 15.605469 -10.644531 L 18.289062 -10.644531 C 17.46875 -14.339844 14.152344 -16.804688 10.078125 -16.804688 C 5.148438 -16.804688 1.640625 -13.203125 1.640625 -8.210938 C 1.640625 -3.191406 5.148438 0.410156 10.078125 0.410156 Z M 10.078125 0.410156 "/></g></g></g></svg>